<svg
              xmlns="http://www.w3.org/2000/svg"
              width="690pt"
              height="auto"
              preserveAspectRatio="xMidYMid meet"
              viewBox="0 0 2345.1023 1647.7795"
            >
              <g transform="matrix(1.0,0.0,0.0,-1.0,0.0,1647.7795)">
                <ellipse cx="130.640625" cy="130.640625" fill="none" rx="130.640625" ry="130.640625" stroke="#7F7F7F" stroke-linecap="round" stroke-width="1.5" transform="matrix(1.0,0.0,0.0,1.0,1247.9062,338.842)"></ellipse>, <ellipse cx="122.34375" cy="122.34375" fill="none" rx="122.34375" ry="122.34375" stroke="#7F7F7F" stroke-linecap="round" stroke-width="2.25" transform="matrix(1.0,0.0,0.0,1.0,1256.3438,347.842)"></ellipse>, <ellipse cx="133.3125" cy="133.3125" fill="none" rx="133.3125" ry="133.3125" stroke="#7F7F7F" stroke-linecap="round" stroke-width="3.0" transform="matrix(1.0,0.0,0.0,1.0,1245.375,336.0295)"></ellipse>, <ellipse cx="125.46521018542064" cy="125.46521018542036" fill="none" rx="125.4652099609375" ry="125.4652099609375" stroke="#000000" stroke-linecap="round" stroke-width="1.5" transform="matrix(1.0,0.0,0.0,1.0,1253.2223,345.02954)"></ellipse>

                <path
                  d="M35.775253296,1.182388544 L35.775253296,1.182388544 L35.775253296,1.182388544 L27.247987747,0.180546507 L27.247987747,0.180546507 L17.725851059,0.000000001 L17.725851059,0.000000001 L8.284603119,0.426965535 L8.284603119,0.426965535 L0,1.247659683 L0.000000805,1.247658491 C2.564051867,1.455010414 4.827813625,2.746170044 6.222224236,4.79656744 L6.222224236,4.79656744 C7.436320305,6.581823349 7.90105629,8.809861183 7.526270866,11.048440933 L7.52627039,11.048440933 L7.52627039,24.262601852 L7.52627039,24.262601852 L27.776269913,24.262601852 L27.776269913,24.262601852 L27.776269913,11.098114967 L27.776269913,11.098114967 C27.845335007,8.664563179 28.634586334,6.337591648 30.002645493,4.534018993 L30.002645493,4.534018993 C31.492965698,2.569263458 33.562393188,1.367735624 35.775253296,1.182385325 Z"
                  stroke="#7F7F7F"
                  stroke-width="2.25"
                  stroke-linecap="round"
                  fill="#FFFFFF"
                  fill-rule="evenodd"
                  transform="matrix(-1.0,0.0,0.0,-1.0,1396.4628,602.65454)"
                />

    


                <path
                  d="M0,0 L375.75,0 L375.75,0 L375.75,373.5 L375.75,373.5 L0,373.5 L0,373.5 L0,0 "
                  stroke="#7F7F7F"
                  stroke-width="1.5"
                  stroke-linecap="round"
                  fill="none"
                  transform="matrix(1.0,0.0,0.0,1.0,818.4375,279.7795)"
                />

                <path
                  d="M0,0 L0,0 Z"
                  stroke="#7F7F7F"
                  stroke-width="1.5"
                  stroke-linecap="round"
                  fill="none"
                  transform="matrix(1.0,0.0,0.0,1.0,1707.1875,657.77954)"
                />

              

                <path
                  d="M0,0 L102.9375,0 L102.9375,0 L102.9375,130.5 L102.9375,130.5 L0,130.5 L0,130.5 L0,0 "
                  stroke="#7F7F7F"
                  stroke-width="1.5"
                  stroke-linecap="round"
                  fill="none"
                  transform="matrix(1.0,0.0,0.0,1.0,2196.0,149.84203)"
                />

                <path
                  d="M0,0 L146.25,0 L146.25,0 L146.25,34.59375 L146.25,34.59375 L0,34.59375 L0,34.59375 L0,0 "
                  stroke="#7F7F7F"
                  stroke-width="1.5"
                  stroke-linecap="round"
                  fill="#FFFFFF"
                  fill-rule="evenodd"
                  transform="matrix(1.0,0.0,0.0,1.0,1840.5,623.1858)"
                />

                <path
                  d="M1.771249056,10.249680519 L0,127.5 L0,127.5 L41.625,127.5 L41.625,127.5 L41.625,124.875 L41.625,124.875 L55.125,124.875 L55.125,124.875 L55.125,117 L55.125,117 L61.875,117 L61.875,117 L61.875,121.5 L61.875,121.5 L66.375,121.5 L66.375,121.5 L66.375,130.5 L66.375,130.5 L60.75,130.5 L60.75,130.5 L60.75,144 L60.75,144 L49.5,144 L49.5,144 L49.5,167.625 L49.5,167.625 L30.375,167.625 L30.375,167.625 L30.375,196.875 L30.375,196.875 L0,213.75 L0,213.75 L36.530788422,276.590393066 L36.530788422,276.590393066 L125.602989197,225.959884644 L125.602989197,225.959884644 L128.25,230.625 L128.25,230.625 L154.125,216 L154.125,216 L151.875,211.5 L151.875,211.5 L202.5,182.25 L202.5,182.25 L202.5,166.5 L202.5,166.5 L191.25,148.078125 L191.25,148.078125 L214.875,133.875 L214.875,133.875 L221.625,146.25 L221.625,146.25 L209.8125,153 L209.8125,153 L213.75,159.75 L213.75,159.75 L248.625,139.5 L248.625,139.5 L254.25,150.75 L254.25,150.75 L297,127.125 L297,127.125 L297.668426514,0 "
                  stroke="#7F7F7F"
                  stroke-width="1.5"
                  stroke-linecap="round"
                  fill="none"
                  transform="matrix(1.0,0.0,0.0,1.0,1254.6033,655.6891)"
                />

                <path
                  d="M21.375,0 L21.375,146.25 L21.375,146.25 L0,146.25 L0,146.25 L0,186.75 L0,186.75 L6.75,186.75 L6.75,186.75 L6.75,194.625 L6.75,194.625 L1.125,194.625 L1.125,194.625 L1.125,250.875 L1.125,250.875 L4.5,250.875 L4.5,250.875 L4.5,254.25 L4.5,254.25 L109.125,254.25 L109.125,254.25 L109.125,241.875 L109.125,241.875 L115.875,241.875 L115.875,241.875 L115.875,210.375 L115.875,210.375 L108,210.375 L108,210.375 L108,194.625 L108,194.625 L120.89881897,194.625 L120.89881897,194.625 L120.89881897,186.75 L120.89881897,186.75 L129.8671875,186.75 L129.8671875,186.75 L129.8671875,190.125 L129.8671875,190.125 L181.125,190.125 L181.125,190.125 L181.125,186.75 L181.125,186.75 L193.5,186.75 L193.5,186.75 L193.5,190.125 L193.5,190.125 L219.375,190.125 L219.375,190.125 L219.375,213.75 L219.375,213.75 L286.875,213.75 L286.875,213.75 L286.875,0 "
                  stroke="#7F7F7F"
                  stroke-width="1.5"
                  stroke-linecap="round"
                  fill="none"
                  transform="matrix(1.0,0.0,0.0,1.0,873.5625,653.27954)"
                />

                <path
                  d="M0,122.211349487 L0,65.25 L0,65.25 L3.008551598,65.25 L3.008551598,65.25 L3.008551598,59 L3.008551598,59 L9.309732437,59.0625 L9.309732437,59.0625 L9.309732437,36 L9.309732437,36 L0.309732646,36 L0.309732646,36 L0.309732646,0 L0.309732646,0 L124.05973053,0 L124.05973053,0 L124.05973053,38.25 L124.05973053,38.25 L115.05973053,38.25 L115.05973053,38.25 L115.05973053,58.5 L115.05973053,58.5 L124.05973053,58.5 L124.05973053,58.5 L124.05973053,121.5 "
                  stroke="#7F7F7F"
                  stroke-width="1.5"
                  stroke-linecap="round"
                  fill="none"
                  transform="matrix(1.0,0.0,0.0,1.0,1317.9375,126.77952)"
                />

                <path
                  d="M0,189 L0,0 L0,0 L31.5,0 L31.5,0 L31.5,40.5 L31.5,40.5 L108,40.5 L108,40.5 L108,0 L108,0 L189,0 L189,0 L189,49.5 L189,49.5 L212.625,49.5 L212.625,49.5 L212.625,42.75 L212.625,42.75 L229.5,42.75 L229.5,42.75 L229.5,49.5 L229.5,49.5 L254.25,49.5 L254.25,49.5 L254.25,67.5 L254.25,67.5 L252.448822021,67.5 L252.448822021,67.5 L252.448822021,105.75 L252.448822021,105.75 L274.5,105.75 L274.5,105.75 L274.5,132.75 L274.5,132.75 L254.25,132.75 L254.25,132.75 L254.25,189 "
                  stroke="#7F7F7F"
                  stroke-width="1.5"
                  stroke-linecap="round"
                  fill="none"
                  transform="matrix(1.0,0.0,0.0,1.0,750.9375,90.779526)"
                />

                <path
                  d="M0,0 L65.25,0 L65.25,0 L65.25,39.375 "
                  stroke="#7F7F7F"
                  stroke-width="1.5"
                  stroke-linecap="round"
                  fill="none"
                  transform="matrix(1.0,0.0,0.0,1.0,939.9375,100.90453)"
                />

                

                <path
                  d="M0,0 L18,0 L18,0 L18,5.625 L18,5.625 L0,5.625 L0,5.625 L0,0 "
                  stroke="#7F7F7F"
                  stroke-width="1.5"
                  stroke-linecap="round"
                  fill="none"
                  transform="matrix(1.0,0.0,0.0,1.0,756.7031,274.15454)"
                />

                <path
                  d="M0,126 L0,0 L0,0 L25.875,0 L25.875,0 L25.875,9 L25.875,9 L40.5,9 L40.5,9 L40.5,2.25 L40.5,2.25 L151.875,2.25 L151.875,2.25 L151.875,9 L151.875,9 L167.625,9 L167.625,9 L167.625,81 L167.625,81 L153,81 L153,81 L153.28125,126 "
                  stroke="#7F7F7F"
                  stroke-width="1.5"
                  stroke-linecap="round"
                  fill="none"
                  transform="matrix(1.0,0.0,0.0,1.0,534.9375,153.77953)"
                />

                <ellipse
                  cx="133.3125"
                  cy="133.3125"
                  rx="133.3125"
                  ry="133.3125"
                  stroke="#7F7F7F"
                  stroke-width="3.0"
                  stroke-linecap="round"
                  fill="none"
                  transform="matrix(1.0,0.0,0.0,1.0,1245.375,336.0295)"
                />

                <path
                  d="M35.775253296,1.17872858 L35.775253296,1.17872858 L35.775253296,1.17872858 L27.247987747,0.179987624 L27.247987747,0.179987624 L17.725851059,-0.000000005 L17.725851059,-0.000000005 L8.284603119,0.425643951 L8.284603119,0.425643951 L0,1.243797779 L-0.000000268,1.243797183 C2.560768843,1.450242519 4.822169781,2.734388828 6.217083931,4.774195671 L6.217083931,4.774195671 C7.43494606,6.555095673 7.901600838,8.779340744 7.526270866,11.014241219 L7.52627039,11.014241219 L7.52627039,24.1875 L7.52627039,24.1875 L27.776269913,24.1875 L27.776269913,24.1875 L27.776269913,11.063762665 L27.776269913,11.063762665 C27.845478058,8.632751465 28.637832642,6.308589935 30.010848999,4.50921917 L30.010848999,4.50921917 C31.500663757,2.556779861 33.56659317,1.363151193 35.775253296,1.178725719 Z"
                  stroke="#7F7F7F"
                  stroke-width="2.25"
                  stroke-linecap="round"
                  fill="#FFFFFF"
                  fill-rule="evenodd"
                  transform="matrix(1.0,0.0,0.0,1.0,1360.9863,335.467)"
                />

                <path
                  d="M0,0 L8.077238083,0 "
                  stroke="#7F7F7F"
                  stroke-width="1.5"
                  stroke-linecap="round"
                  fill="none"
                  transform="matrix(-0.8124682,0.58300555,-0.58300555,-0.8124682,1378.708,578.5373)"
                />

                <path
                  d="M35.775253296,1.182388544 L35.775253296,1.182388544 L35.775253296,1.182388544 L27.247987747,0.180546507 L27.247987747,0.180546507 L17.725851059,0.000000001 L17.725851059,0.000000001 L8.284603119,0.426965535 L8.284603119,0.426965535 L0,1.247659683 L0.000000805,1.247658491 C2.564051867,1.455010414 4.827813625,2.746170044 6.222224236,4.79656744 L6.222224236,4.79656744 C7.436320305,6.581823349 7.90105629,8.809861183 7.526270866,11.048440933 L7.52627039,11.048440933 L7.52627039,24.262601852 L7.52627039,24.262601852 L27.776269913,24.262601852 L27.776269913,24.262601852 L27.776269913,11.098114967 L27.776269913,11.098114967 C27.845335007,8.664563179 28.634586334,6.337591648 30.002645493,4.534018993 L30.002645493,4.534018993 C31.492965698,2.569263458 33.562393188,1.367735624 35.775253296,1.182385325 Z"
                  stroke="#7F7F7F"
                  stroke-width="2.25"
                  stroke-linecap="round"
                  fill="#FFFFFF"
                  fill-rule="evenodd"
                  transform="matrix(-0.0,-1.0,1.0,0.0,1244.8328,487.57648)"
                />

                <path
                  d="M35.775253296,1.213362813 L35.775253296,1.213362813 L35.775253296,1.213362813 L27.247987747,0.18527621 L27.247987747,0.18527621 L17.725851059,0.000000014 L17.725851059,0.000000014 L8.284603119,0.438150525 L8.284603119,0.438150525 L0,1.28034389 L0,1.280342817 C2.591561556,1.495408773 4.875039101,2.846561432 6.264955521,4.987365723 L6.264955521,4.987365723 C7.44768858,6.809056759 7.896484375,9.068664551 7.526270866,11.337869644 L7.52627039,11.337869644 L7.52627039,24.898193359 L7.52627039,24.898193359 L27.776269913,24.898193359 L27.776269913,24.898193359 L27.776269913,11.388846397 L27.776269913,11.388846397 C27.844154358,8.934267044 28.60782814,6.584018707 29.934907913,4.745528698 L29.934907913,4.745528698 C31.428987503,2.675678253 33.527423859,1.406571865 35.775253296,1.213360548 Z"
                  stroke="#7F7F7F"
                  stroke-width="2.25"
                  stroke-linecap="round"
                  fill="#FFFFFF"
                  fill-rule="evenodd"
                  transform="matrix(0.0,1.0,-1.0,-0.0,1511.9999,452.14996)"
                />

                <path
                  d="M0,0 L8.071561813,0 "
                  stroke="#7F7F7F"
                  stroke-width="1.5"
                  stroke-linecap="round"
                  fill="none"
                  transform="matrix(0.5822083,0.8130397,-0.8130397,0.5822083,1488.3751,469.90454)"
                />

                <path
                  d="M0,0 L12.9375,0 L12.9375,0 L12.9375,21.375 L12.9375,21.375 L0,21.375 L0,21.375 L0,0 "
                  stroke="#FFFFFF"
                  stroke-width="1.5"
                  stroke-linecap="round"
                  fill="#FFFFFF"
                  fill-rule="evenodd"
                  transform="matrix(0.70710677,-0.70710677,0.70710677,0.70710677,1279.4261,388.04083)"
                />

                <path
                  d="M0,0 L12.9375,0 L12.9375,0 L12.9375,24.1875 L12.9375,24.1875 L0,24.1875 L0,24.1875 L0,0 "
                  stroke="#FFFFFF"
                  stroke-width="1.5"
                  stroke-linecap="round"
                  fill="#FFFFFF"
                  fill-rule="evenodd"
                  transform="matrix(-0.70710677,-0.70710677,0.70710677,-0.70710677,1289.5845,562.9052)"
                />

              

                <path
                  d="M0,1.828125 L0,1.828125 L0,1.828125 L7.701603889,0.413706154 L7.701603889,0.413706154 L14.837430954,-0.070913285 L14.837430954,-0.070913285 L22.069932938,0.393986434 L22.069932938,0.393986434 L30.061553955,1.828125 "
                  stroke="#FFFFFF"
                  stroke-width="6.0"
                  fill="none"
                  transform="matrix(-1.0,0.0,0.0,-1.0,1394.4375,593.23267)"
                />

                <path
                  d="M0,1.125 L0,1.125 L0,1.125 L7.701603889,0.254588395 L7.701603889,0.254588395 L14.837430954,-0.043638941 L14.837430954,-0.043638941 L22.069932938,0.242453188 L22.069932938,0.242453188 L30.061553955,1.125 "
                  stroke="#FFFFFF"
                  stroke-width="6.0"
                  fill="none"
                  transform="matrix(1.0,0.0,0.0,1.0,1363.7894,346.1545)"
                />

                <path
                  d="M0,17.911035538 L6.625,22.499765396 L6.624893188,22.499767303 C6.515579224,15.00003624 6.515579224,7.49973011 6.624893188,-0.000001073 "
                  stroke="#7F7F7F"
                  stroke-width="1.5"
                  stroke-linecap="round"
                  fill="none"
                  transform="matrix(1.0,0.0,0.0,1.0,1372.0625,336.0298)"
                />

                <path
                  d="M0,0 L7.982945919,0 "
                  stroke="#7F7F7F"
                  stroke-width="1.5"
                  stroke-linecap="round"
                  fill="none"
                  transform="matrix(0.82206494,-0.56939375,0.56939375,0.82206494,1378.6875,358.52957)"
                />

                <path
                  d="M0,18.4461689 L6.625,23.061790466 L6.625030518,23.061790466 C6.562820435,15.374376297 6.612121582,7.686720371 6.77293396,0 "
                  stroke="#7F7F7F"
                  stroke-width="1.5"
                  stroke-linecap="round"
                  fill="none"
                  transform="matrix(-0.0,-1.0,1.0,0.0,1245.3757,476.55014)"
                />

                <path
                  d="M0,0 L7.998142719,0 "
                  stroke="#7F7F7F"
                  stroke-width="1.5"
                  stroke-linecap="round"
                  fill="none"
                  transform="matrix(-0.57164234,-0.82050294,0.82050294,-0.57164234,1268.4375,469.92517)"
                />

                <path
                  d="M0,19.363264084 L6.625,24.1171875 L6.625030518,24.1171875 C6.518737793,16.078281403 6.525604248,8.038806915 6.645629883,0 "
                  stroke="#7F7F7F"
                  stroke-width="1.5"
                  stroke-linecap="round"
                  fill="none"
                  transform="matrix(-1.0,0.0,0.0,-1.0,1385.3331,602.65454)"
                />

                <path
                  d="M0,1.125 L0,1.125 L0,1.125 L7.701603889,0.254588395 L7.701603889,0.254588395 L14.837430954,-0.043638941 L14.837430954,-0.043638941 L22.069932938,0.242453188 L22.069932938,0.242453188 L30.061553955,1.125 "
                  stroke="#FFFFFF"
                  stroke-width="6.0"
                  fill="none"
                  transform="matrix(-1.0,0.0,0.0,-1.0,1394.4375,594.77954)"
                />

                <ellipse
                  cx="125.46521018542064"
                  cy="125.46521018542036"
                  rx="125.4652099609375"
                  ry="125.4652099609375"
                  stroke="#000000"
                  stroke-width="1.5"
                  stroke-linecap="round"
                  fill="none"
                  transform="matrix(1.0,0.0,0.0,1.0,1253.2223,345.02954)"
                />

                <path
                  id="NB03025"
                  label="NB03025"
                  d="M3.882353783,0 L3.882353783,0 L3.882353783,0 L1.95872581,1.10754168 L1.95872581,1.10754168 L0.759105086,2.533332825 L0.759105086,2.533332825 L0.15101862,4.159152985 L0.15101862,4.159152985 L0.001993175,5.866783619 L0.001993418,5.866783619 C0.005959868,7.213757038 0.531937838,8.5064888 1.465406418,9.463511467 L1.465406418,9.463511467 C2.417824745,10.43996048 3.717612028,10.98815918 5.070920467,10.984173775 L5.070920467,10.984173775 C5.070920467,10.984173775 5.070920467,10.984173775 5.070920467,10.984173775 L5.070920944,10.984174728 L11.833188057,10.984174728 L11.833188057,10.984175682 C13.165176392,10.997348785 14.447454453,10.454958916 15.38558197,9.48155117 L15.38558197,9.48155117 C16.289640427,8.543497086 16.803218842,7.278700829 16.816278458,5.958166122 L16.816278458,5.958165646 L16.816278458,5.958165646 L16.816278458,5.958165646 L16.552658081,3.761498928 L16.552658081,3.761498928 L15.711482048,2.070711374 L15.711482048,2.070711374 L14.519465446,0.845532298 L14.519465446,0.845532298 L13.203316689,0.045690995 L13.203316689,0.045690995 L10.461856842,3.449670076 L10.461856842,3.449670076 L6.441049099,3.449670076 L6.441049099,3.449670076 L3.882353783,0 Z"
                  stroke="#A5A5A5"
                  stroke-width="0.75"
                  stroke-linecap="round"
                  fill="#FFFFFF"
                  fill-rule="evenodd"
                  transform="matrix(0.70710677,-0.70710677,0.70710677,0.70710677,2223.6665,382.85736)"
                />

                <path
                  id="NB03026"
                  label="NB03026"
                  d="M3.882353783,0 L3.882353783,0 L3.882353783,0 L1.95872581,1.10754168 L1.95872581,1.10754168 L0.759105086,2.533332825 L0.759105086,2.533332825 L0.15101862,4.159152985 L0.15101862,4.159152985 L0.001993175,5.866783619 L0.001993418,5.866783619 C0.005959868,7.213757038 0.531937838,8.5064888 1.465406418,9.463511467 L1.465406418,9.463511467 C2.417824745,10.43996048 3.717612028,10.98815918 5.070920467,10.984173775 L5.070920467,10.984173775 C5.070920467,10.984173775 5.070920467,10.984173775 5.070920467,10.984173775 L5.070920944,10.984174728 L11.833188057,10.984174728 L11.833188057,10.984175682 C13.165176392,10.997348785 14.447454453,10.454958916 15.38558197,9.48155117 L15.38558197,9.48155117 C16.289640427,8.543497086 16.803218842,7.278700829 16.816278458,5.958166122 L16.816278458,5.958165646 L16.816278458,5.958165646 L16.816278458,5.958165646 L16.552658081,3.761498928 L16.552658081,3.761498928 L15.711482048,2.070711374 L15.711482048,2.070711374 L14.519465446,0.845532298 L14.519465446,0.845532298 L13.203316689,0.045690995 L13.203316689,0.045690995 L10.461856842,3.449670076 L10.461856842,3.449670076 L6.441049099,3.449670076 L6.441049099,3.449670076 L3.882353783,0 Z"
                  stroke="#A5A5A5"
                  stroke-width="0.75"
                  stroke-linecap="round"
                  fill="#FFFFFF"
                  fill-rule="evenodd"
                  transform="matrix(-0.70710677,-0.70710677,0.70710677,-0.70710677,2235.5613,370.61072)"
                />

                <path
                  d="M334.504455566,192.504547119 L273.375,192.375 L273.375,192.375 L273.375,594 L273.375,594 L329.625,648 L329.625,648 L354,622.875 L354,622.875 L393.1875,662.0625 L393.1875,662.0625 L364.5,690.75 L364.5,690.75 L338.625,666 L338.625,666 L303.75,702 L303.75,702 L318.375,717.75 L318.375,717.75 L299.625,738 L299.625,738 L269.625,708 L269.625,708 L212.625,765 L212.625,765 L199.125,750 L199.125,750 L182.25,750 L182.25,750 L186.9375,754.6875 L186.9375,754.6875 L181.125,760.5 L181.125,760.5 L138.75,718.125 L138.75,718.125 L144.375,712.5 L144.375,712.5 L149.625,717.75 L149.625,717.75 L149.625,699.75 L149.625,699.75 L123.819335938,672.349731445 L123.819335938,672.349731445 L146.278503418,650.661132813 L146.278503418,650.661132813 L104.625,609.75 L104.625,609.75 L104.625,541.125 L104.625,541.125 L91.125,541.125 L91.125,541.125 L91.125,533.25 L91.125,533.25 L56.25,533.25 L56.25,533.25 L56.25,434.25 L56.25,434.25 L104.625,434.25 L104.625,434.25 L104.625,263.25 L104.625,263.25 L104.625,263.25 L104.625,263.25 L104.837585449,259.762664795 L104.837585449,259.762664795 L104.638183594,256.075927734 L104.638183594,256.075927734 L104.036682129,252.22769165 L104.036682129,252.22769165 L103.04296875,248.255859375 L103.04296875,248.255859375 L99.918457031,240.093017578 L99.918457031,240.093017578 L95.34375,231.890625 L95.34375,231.890625 L89.397949219,223.951904297 L89.397949219,223.951904297 L82.16015625,216.580078125 L82.16015625,216.580078125 L78.081481934,213.201507568 L78.081481934,213.201507568 L73.709472656,210.078369141 L73.709472656,210.078369141 L69.054016113,207.248565674 L69.054016113,207.248565674 L64.125,204.75 L64.125,204.75 L38.25,204.75 L38.25,204.75 L38.25,128.8125 L38.25,128.8125 L38.25,128.8125 L38.25,128.8125 L35.822021484,125.919799805 L35.822021484,125.919799805 L32.115234375,122.862304688 L32.115234375,122.862304688 L27.432861328,119.844360352 L27.432861328,119.844360352 L22.078125,117.0703125 L22.078125,117.0703125 L16.354248047,114.744506836 L16.354248047,114.744506836 L10.564453125,113.071289063 L10.564453125,113.071289063 L5.011962891,112.255004883 L5.011962891,112.255004883 L0,112.5 L0,112.5 L0,45 L0,45 L0,45 L0,45 L8.436987877,43.93938446 L8.436987877,43.93938446 L18.199918747,41.369808197 L18.199918747,41.369808197 L23.293012619,39.514385223 L23.293012619,39.514385223 L28.374874115,37.275989532 L28.374874115,37.275989532 L33.331256866,34.65271759 L33.331256866,34.65271759 L38.047927856,31.642654419 L38.047927856,31.642654419 L42.427940369,28.252714157 L42.427940369,28.252714157 L46.477970123,24.542610168 L46.477970123,24.542610168 L50.243091583,20.59163475 L50.243091583,20.59163475 L53.768447876,16.479110718 L53.768447876,16.479110718 L60.280414581,8.08671093 L60.280414581,8.08671093 L66.375,0 "
                  stroke="#7F7F7F"
                  stroke-width="1.5"
                  stroke-linecap="round"
                  fill="none"
                  transform="matrix(1.0,0.0,0.0,1.0,93.414856,641.17523)"
                />
      
              </g>
            </svg>
            
            